<svg width="33" height="33" viewBox="0 0 33 33" fill="none" xmlns="http://www.w3.org/2000/svg">
<path d="M15.9863 25.1812C15.7705 25.1812 15.5879 25.1203 15.4385 24.9985C15.2891 24.8823 15.1895 24.7163 15.1396 24.5005L14.708 22.6743C14.5475 22.619 14.3898 22.5609 14.2349 22.5C14.0799 22.4391 13.9333 22.3755 13.7949 22.3091L12.2012 23.2886C12.0186 23.3993 11.8304 23.4463 11.6367 23.4297C11.4486 23.4131 11.2798 23.3301 11.1304 23.1807L10.0679 22.1182C9.91846 21.9688 9.83268 21.7944 9.81055 21.5952C9.79395 21.396 9.84652 21.2078 9.96826 21.0308L10.9395 19.4453C10.873 19.3014 10.8094 19.1548 10.7485 19.0054C10.6877 18.856 10.6351 18.7065 10.5908 18.5571L8.74805 18.1172C8.53223 18.0729 8.36621 17.9761 8.25 17.8267C8.13379 17.6772 8.07568 17.4946 8.07568 17.2788V15.7764C8.07568 15.5661 8.13379 15.3862 8.25 15.2368C8.36621 15.0874 8.53223 14.9906 8.74805 14.9463L10.5742 14.5063C10.624 14.3348 10.6794 14.1743 10.7402 14.0249C10.8066 13.8755 10.8675 13.7344 10.9229 13.6016L9.95166 11.9912C9.82992 11.8141 9.77734 11.6315 9.79395 11.4434C9.81055 11.2497 9.89632 11.0781 10.0513 10.9287L11.1304 9.85791C11.2853 9.71403 11.4513 9.63102 11.6284 9.60889C11.811 9.58675 11.9937 9.62826 12.1763 9.7334L13.7866 10.7295C13.925 10.6576 14.0716 10.5911 14.2266 10.5303C14.387 10.4639 14.5475 10.403 14.708 10.3477L15.1396 8.51318C15.1895 8.3029 15.2891 8.13688 15.4385 8.01514C15.5879 7.89339 15.7705 7.83252 15.9863 7.83252H17.5137C17.7295 7.83252 17.9121 7.89339 18.0615 8.01514C18.2109 8.13688 18.3078 8.3029 18.3521 8.51318L18.7837 10.3643C18.9552 10.4196 19.1157 10.4777 19.2651 10.5386C19.4201 10.5994 19.564 10.6659 19.6968 10.7378L21.3237 9.7334C21.5063 9.62826 21.6862 9.58952 21.8633 9.61719C22.0404 9.63932 22.2064 9.71956 22.3613 9.85791L23.4487 10.9287C23.6037 11.0781 23.6867 11.2497 23.6978 11.4434C23.7144 11.6315 23.6646 11.8141 23.5483 11.9912L22.5688 13.6016C22.6242 13.7344 22.6823 13.8755 22.7432 14.0249C22.8096 14.1743 22.8704 14.3348 22.9258 14.5063L24.752 14.9463C24.9622 14.9906 25.1255 15.0874 25.2417 15.2368C25.3634 15.3862 25.4243 15.5661 25.4243 15.7764V17.2788C25.4243 17.4946 25.3634 17.6772 25.2417 17.8267C25.1255 17.9761 24.9622 18.0729 24.752 18.1172L22.9092 18.5571C22.8594 18.7065 22.804 18.856 22.7432 19.0054C22.6878 19.1548 22.6242 19.3014 22.5522 19.4453L23.5317 21.0308C23.6535 21.2078 23.7033 21.396 23.6812 21.5952C23.6646 21.7944 23.5815 21.9688 23.4321 22.1182L22.3613 23.1807C22.2119 23.3301 22.0404 23.4131 21.8467 23.4297C21.6585 23.4463 21.4759 23.3993 21.2988 23.2886L19.6968 22.3091C19.5584 22.3755 19.4118 22.4391 19.2568 22.5C19.1019 22.5609 18.9442 22.619 18.7837 22.6743L18.3521 24.5005C18.3078 24.7163 18.2109 24.8823 18.0615 24.9985C17.9121 25.1203 17.7295 25.1812 17.5137 25.1812H15.9863ZM16.75 19.437C17.2868 19.437 17.7765 19.3042 18.2192 19.0386C18.6675 18.7729 19.0216 18.4188 19.2817 17.9761C19.5474 17.5278 19.6802 17.0353 19.6802 16.4985C19.6802 15.9618 19.5474 15.4748 19.2817 15.0376C19.0216 14.5949 18.6675 14.2407 18.2192 13.9751C17.7765 13.7095 17.2868 13.5767 16.75 13.5767C16.2132 13.5767 15.7235 13.7095 15.2808 13.9751C14.8381 14.2407 14.4839 14.5949 14.2183 15.0376C13.9526 15.4748 13.8198 15.9618 13.8198 16.4985C13.8198 17.0353 13.9499 17.5278 14.21 17.9761C14.4756 18.4188 14.8298 18.7729 15.2725 19.0386C15.7207 19.3042 16.2132 19.437 16.75 19.437Z" fill="#C1C1C1"/>
</svg>
