<svg width="33" height="33" viewBox="0 0 33 33" fill="none" xmlns="http://www.w3.org/2000/svg">
<path d="M15.3599 24.7329C14.0483 24.7329 12.9028 24.4977 11.9233 24.0273C10.9494 23.557 10.1912 22.8984 9.64893 22.0518C9.10661 21.2051 8.83545 20.2145 8.83545 19.0801C8.83545 18.4824 8.88249 17.9512 8.97656 17.4863C9.07617 17.0215 9.19515 16.6037 9.3335 16.2329C9.47738 15.8566 9.62126 15.5024 9.76514 15.1704C9.90902 14.8384 10.028 14.5091 10.1221 14.1826C10.2161 13.8561 10.2632 13.5075 10.2632 13.1367C10.2632 12.9541 10.2521 12.7549 10.23 12.5391C10.2134 12.3177 10.2051 12.1545 10.2051 12.0493C10.2051 11.8667 10.2576 11.7173 10.3628 11.6011C10.4679 11.4849 10.6063 11.4268 10.7778 11.4268C11.0711 11.4268 11.3672 11.5153 11.666 11.6924C11.9704 11.8695 12.2415 12.1157 12.4795 12.4312C12.723 12.741 12.9084 13.1007 13.0356 13.5103L12.6206 13.5933C12.7534 13.3608 12.8364 13.1561 12.8696 12.979C12.9084 12.7964 12.9277 12.611 12.9277 12.4229C12.9222 11.875 12.8198 11.3548 12.6206 10.8623C12.4269 10.3698 12.1779 9.90218 11.8735 9.45947C11.5747 9.01676 11.262 8.59896 10.9355 8.20605C10.847 8.10645 10.7806 8.00407 10.7363 7.89893C10.6921 7.79378 10.6699 7.68864 10.6699 7.5835C10.6699 7.31787 10.7834 7.11865 11.0103 6.98584C11.2427 6.84749 11.5553 6.77832 11.9482 6.77832C12.6787 6.77832 13.4479 6.86686 14.2559 7.04395C15.0693 7.21549 15.8745 7.48665 16.6714 7.85742C17.4738 8.22266 18.2347 8.69027 18.9541 9.26025C19.6735 9.82471 20.3099 10.4971 20.8633 11.2773C21.4222 12.0521 21.8621 12.9403 22.1831 13.9419C22.5041 14.9435 22.6646 16.0641 22.6646 17.3037C22.6646 18.416 22.4902 19.4287 22.1416 20.3418C21.7985 21.2549 21.3032 22.0379 20.6558 22.6909C20.0083 23.3439 19.2363 23.8475 18.3398 24.2017C17.4489 24.5558 16.4556 24.7329 15.3599 24.7329ZM15.5508 22.4004C16.2093 22.4004 16.7544 22.2565 17.186 21.9688C17.6232 21.681 17.9497 21.3019 18.1655 20.8315C18.3813 20.3612 18.4893 19.8521 18.4893 19.3042C18.4893 18.7619 18.3841 18.2168 18.1738 17.6689C17.9691 17.1211 17.6619 16.6147 17.2524 16.1499C16.8429 15.6851 16.3338 15.3088 15.7251 15.021C15.6864 15.0044 15.6559 15.0072 15.6338 15.0293C15.6117 15.0459 15.6034 15.0736 15.6089 15.1123C15.6808 15.793 15.6698 16.4266 15.5757 17.0132C15.4816 17.5942 15.3239 18.0342 15.1025 18.333C14.9974 18.0951 14.8784 17.8737 14.7456 17.6689C14.6183 17.4587 14.4578 17.2677 14.2642 17.0962C14.2365 17.0741 14.2088 17.0685 14.1812 17.0796C14.159 17.0851 14.1452 17.1073 14.1396 17.146C14.1064 17.384 14.029 17.6025 13.9072 17.8018C13.7855 17.9954 13.6527 18.2002 13.5088 18.416C13.3649 18.6263 13.2376 18.8643 13.127 19.1299C13.0218 19.39 12.9692 19.7026 12.9692 20.0679C12.9692 20.7651 13.2044 21.3296 13.6748 21.7612C14.1507 22.1873 14.776 22.4004 15.5508 22.4004Z" fill="#1CC487"/>
</svg>
