<svg width="33" height="33" viewBox="0 0 33 33" fill="none" xmlns="http://www.w3.org/2000/svg">
<path d="M13.3511 23.6704V17.6274C13.3511 17.4393 13.4092 17.2871 13.5254 17.1709C13.6416 17.0547 13.7965 16.9966 13.9902 16.9966H17.5098C17.6979 16.9966 17.8501 17.0547 17.9663 17.1709C18.0825 17.2871 18.1406 17.4393 18.1406 17.6274V23.6704H13.3511ZM10.1055 24.5254C9.51335 24.5254 9.05127 24.3649 8.71924 24.0439C8.39274 23.723 8.22949 23.272 8.22949 22.6909V13.5186L9.56592 12.6138V22.3506C9.56592 22.6217 9.63509 22.8293 9.77344 22.9731C9.91732 23.117 10.1221 23.189 10.3877 23.189H21.0542C21.3198 23.189 21.5218 23.117 21.6602 22.9731C21.7985 22.8293 21.8677 22.6217 21.8677 22.3506V12.6055L23.2041 13.5186V22.6909C23.2041 23.272 23.0409 23.723 22.7144 24.0439C22.3879 24.3649 21.9285 24.5254 21.3364 24.5254H10.1055ZM5.83887 15.2866C5.83887 15.0708 5.92741 14.891 6.10449 14.7471L14.7539 7.48389C15.0638 7.2238 15.3958 7.09375 15.75 7.09375C16.1097 7.09375 16.4445 7.2238 16.7544 7.48389L25.3955 14.7471C25.5671 14.891 25.6528 15.0791 25.6528 15.3115C25.6528 15.5107 25.5837 15.6685 25.4453 15.7847C25.307 15.8953 25.141 15.9507 24.9473 15.9507C24.8311 15.9507 24.7231 15.923 24.6235 15.8677C24.5295 15.8123 24.4409 15.7515 24.3579 15.6851L16.0488 8.7124C15.9548 8.62939 15.8551 8.58789 15.75 8.58789C15.6504 8.58789 15.5535 8.62939 15.4595 8.7124L7.15039 15.6851C7.06185 15.7515 6.96777 15.8123 6.86816 15.8677C6.77409 15.923 6.66895 15.9507 6.55273 15.9507C6.33138 15.9507 6.15706 15.8843 6.02979 15.7515C5.90251 15.6131 5.83887 15.4582 5.83887 15.2866ZM21.1206 11.543V9.46777C21.1206 9.28516 21.1759 9.14128 21.2866 9.03613C21.3973 8.92546 21.5412 8.87012 21.7183 8.87012H22.6064C22.7891 8.87012 22.9329 8.92546 23.0381 9.03613C23.1488 9.14128 23.2041 9.28516 23.2041 9.46777V13.3027L21.1206 11.543Z" fill="#1CC487"/>
</svg>
